<?xml version="1.0" encoding="utf-8"?>
<!DOCTYPE svg PUBLIC "-//W3C//DTD SVG 20010904//EN" "http://www.w3.org/TR/2001/REC-SVG-20010904/DTD/svg10.dtd">
<svg version="1.0" xmlns="http://www.w3.org/2000/svg" width="2000pt" height="2000pt" viewBox="0 0 2000 2000" style="background-color:#FDFDFD" preserveAspectRatio="xMidYMid meet">
<g fill="#91B1F8FD" stroke="#91B1F8FD">
<path d="M 819.000 383.983 C 809.375 384.437 798.401 385.534 794.613 386.421 C 774.065 391.235 756.026 408.666 749.514 430.000 C 747.445 436.777 746.745 451.287 740.003 627.000 C 737.227 699.325 734.522 769.525 733.991 783.000 C 733.460 796.475 733.020 811.918 733.013 817.318 L 733.000 827.136 736.086 824.939 C 741.777 820.886 775.201 787.648 787.811 773.500 C 799.815 760.033 818.660 736.935 826.159 726.500 C 829.434 721.941 829.895 720.434 831.379 709.421 C 834.316 687.619 834.951 686.447 850.000 675.028 C 865.677 663.133 905.673 637.680 907.203 638.625 C 907.599 638.870 908.215 640.631 908.573 642.539 C 909.522 647.596 907.509 649.949 895.235 658.133 C 889.331 662.070 884.316 665.447 884.090 665.638 C 883.865 665.830 884.952 670.132 886.507 675.200 C 892.127 693.520 890.051 700.540 874.242 716.678 C 864.364 726.762 859.728 729.824 852.971 730.731 C 849.371 731.214 849.117 731.511 846.458 738.367 C 829.656 781.697 785.370 845.290 737.379 895.000 L 730.139 902.500 729.433 925.141 L 728.727 947.781 731.614 948.326 C 733.201 948.626 736.670 949.158 739.322 949.508 C 745.021 950.260 747.634 952.534 748.578 957.562 C 749.197 960.866 748.149 963.505 738.131 983.867 L 726.994 1006.500 725.483 1068.500 C 724.651 1102.600 723.512 1150.075 722.950 1174.000 C 722.389 1197.925 721.680 1265.425 721.374 1324.000 C 720.784 1437.203 721.580 1480.750 724.436 1491.500 C 729.855 1511.898 745.883 1529.251 765.556 1536.019 C 774.236 1539.006 782.921 1539.724 856.000 1543.497 C 997.153 1550.786 1095.086 1553.958 1227.500 1555.531 C 1325.998 1556.701 1464.631 1552.376 1485.767 1547.474 C 1506.186 1542.739 1524.762 1527.723 1533.982 1508.500 C 1538.991 1498.057 1540.808 1489.424 1541.633 1472.146 L 1542.308 1458.000 1537.877 1458.000 C 1532.638 1458.000 1529.000 1455.786 1529.000 1452.598 C 1529.000 1448.914 1532.018 1447.000 1537.829 1447.000 C 1540.673 1447.000 1543.001 1446.663 1543.002 1446.250 C 1543.009 1442.859 1546.071 1390.224 1546.521 1385.750 L 1547.099 1380.000 1541.256 1380.000 L 1535.412 1380.000 1527.115 1391.953 C 1522.552 1398.527 1518.297 1404.319 1517.659 1404.824 C 1516.204 1405.977 1480.084 1395.739 1478.874 1393.831 C 1478.410 1393.099 1478.024 1389.982 1478.015 1386.904 C 1478.007 1383.826 1477.710 1377.225 1477.356 1372.236 L 1476.712 1363.165 1468.106 1357.339 C 1463.373 1354.135 1455.900 1348.097 1451.500 1343.922 L 1443.500 1336.331 1428.304 1339.008 C 1419.947 1340.481 1412.661 1341.409 1412.114 1341.071 C 1410.892 1340.315 1393.000 1308.273 1393.000 1306.838 C 1393.000 1306.271 1396.943 1301.463 1401.762 1296.153 C 1415.360 1281.172 1414.157 1283.748 1411.873 1274.500 C 1410.785 1270.100 1409.631 1261.029 1409.307 1254.342 L 1408.717 1242.185 1404.109 1241.520 C 1398.407 1240.698 1390.545 1237.204 1386.282 1233.598 C 1384.513 1232.101 1381.625 1227.953 1379.866 1224.379 L 1376.667 1217.881 1375.395 1168.836 C 1374.696 1141.861 1373.983 1119.714 1373.812 1119.621 C 1373.640 1119.528 1370.319 1119.609 1366.431 1119.801 L 1359.362 1120.150 1354.011 1128.075 C 1351.069 1132.434 1348.400 1135.997 1348.080 1135.993 C 1346.566 1135.976 1325.412 1129.779 1324.787 1129.169 C 1324.395 1128.786 1323.773 1124.205 1323.407 1118.987 L 1322.740 1109.500 1316.620 1105.289 C 1313.254 1102.973 1308.609 1099.229 1306.297 1096.970 L 1302.094 1092.861 1293.719 1094.431 C 1289.113 1095.294 1284.639 1096.000 1283.778 1096.000 C 1282.515 1096.000 1277.200 1087.626 1270.363 1074.863 C 1270.175 1074.512 1272.976 1070.930 1276.587 1066.903 C 1281.967 1060.903 1283.056 1059.122 1282.615 1057.040 C 1282.320 1055.643 1281.533 1049.489 1280.867 1043.365 L 1279.655 1032.230 1271.828 1026.946 C 1267.522 1024.039 1264.000 1021.594 1264.000 1021.512 C 1264.000 1021.359 1265.695 1015.471 1269.077 1003.879 L 1271.008 997.257 1280.856 996.559 L 1290.705 995.861 1295.063 989.680 C 1297.460 986.281 1301.197 981.573 1303.367 979.218 L 1307.314 974.936 1305.602 965.356 C 1304.661 960.087 1304.028 955.651 1304.196 955.499 C 1305.556 954.264 1324.759 944.000 1325.710 944.000 C 1326.383 944.000 1330.112 946.863 1333.997 950.362 L 1341.061 956.723 1346.780 955.377 C 1349.926 954.637 1355.772 954.024 1359.771 954.016 L 1367.041 954.000 1370.271 949.361 C 1372.047 946.809 1374.710 943.025 1376.190 940.953 L 1378.879 937.184 1388.653 940.045 C 1394.029 941.618 1398.569 942.765 1398.742 942.592 C 1398.915 942.419 1398.623 941.140 1398.095 939.749 C 1397.566 938.358 1396.817 931.814 1396.431 925.206 L 1395.728 913.191 1388.722 911.844 C 1381.326 910.422 1378.397 908.203 1380.775 905.825 C 1381.735 904.865 1383.480 904.847 1388.722 905.745 C 1392.415 906.378 1395.561 906.772 1395.712 906.622 C 1395.862 906.471 1395.558 891.427 1395.035 873.192 C 1394.003 837.170 1394.155 835.531 1399.350 826.666 C 1402.200 821.802 1406.880 817.864 1413.244 814.976 C 1418.608 812.541 1425.745 812.479 1461.000 814.561 C 1484.478 815.947 1488.075 816.386 1492.546 818.414 C 1499.824 821.715 1504.907 826.625 1508.156 833.491 C 1511.739 841.065 1511.756 843.408 1508.513 883.076 C 1504.025 937.986 1504.273 935.922 1501.479 941.632 C 1497.284 950.206 1488.528 956.499 1479.253 957.604 C 1471.686 958.505 1471.579 958.600 1474.091 962.128 C 1475.763 964.476 1476.068 965.669 1475.305 966.882 C 1473.394 969.917 1471.396 969.123 1467.933 963.952 L 1464.500 958.828 1458.500 959.438 C 1455.200 959.773 1445.509 960.329 1436.964 960.672 C 1419.517 961.373 1416.980 960.896 1408.999 955.406 L 1404.000 951.967 1404.000 957.787 L 1404.000 963.606 1410.250 968.013 C 1413.688 970.437 1418.432 974.201 1420.792 976.377 L 1425.085 980.333 1432.792 979.146 C 1437.032 978.493 1441.424 977.714 1442.553 977.414 C 1444.309 976.949 1445.508 978.495 1450.833 988.099 L 1457.060 999.328 1454.296 1002.414 C 1452.775 1004.111 1449.773 1007.383 1447.623 1009.684 L 1443.714 1013.867 1444.825 1019.684 C 1445.436 1022.883 1446.238 1028.994 1446.607 1033.264 L 1447.278 1041.029 1455.139 1046.537 C 1459.463 1049.566 1462.988 1052.147 1462.973 1052.273 C 1462.958 1052.398 1461.450 1057.666 1459.621 1063.979 C 1455.813 1077.126 1456.284 1076.737 1443.966 1076.900 C 1436.637 1076.997 1436.381 1077.085 1434.594 1080.111 C 1433.583 1081.822 1430.781 1085.647 1428.366 1088.611 L 1423.977 1094.000 1426.955 1094.000 C 1428.593 1094.000 1437.935 1094.464 1447.716 1095.031 C 1460.805 1095.791 1466.994 1096.588 1471.158 1098.052 C 1475.788 1099.679 1477.283 1099.828 1479.379 1098.873 C 1481.726 1097.804 1482.420 1098.115 1487.687 1102.603 C 1490.848 1105.296 1496.165 1110.049 1499.502 1113.164 L 1505.570 1118.827 1513.535 1116.861 C 1518.014 1115.755 1527.359 1114.590 1534.886 1114.197 L 1548.271 1113.500 1554.087 1105.000 L 1559.903 1096.500 1560.970 1074.500 C 1563.330 1025.811 1567.875 897.741 1570.463 807.000 C 1573.378 704.773 1574.203 643.465 1573.739 563.500 C 1573.210 472.321 1573.513 476.137 1565.489 459.500 C 1555.766 439.342 1535.336 424.291 1513.252 421.018 C 1507.459 420.159 1460.896 416.122 1363.000 407.990 C 1341.939 406.241 1261.843 400.474 1182.500 394.994 C 1133.308 391.597 1059.007 387.790 987.000 384.977 C 951.775 383.601 841.024 382.946 819.000 383.983 M 1320.365 1354.073 L 1323.000 1356.145 1323.000 1426.073 C 1323.000 1494.667 1322.962 1496.038 1321.000 1498.000 C 1319.014 1499.986 1317.667 1500.000 1126.000 1500.000 C 934.333 1500.000 932.986 1499.986 931.000 1498.000 C 929.038 1496.038 929.000 1494.667 929.000 1426.073 L 929.000 1356.145 931.635 1354.073 L 934.270 1352.000 1126.000 1352.000 L 1317.730 1352.000 1320.365 1354.073 M 1167.500 822.609 C 1349.521 823.268 1340.074 822.967 1345.865 828.298 C 1352.668 834.560 1352.666 847.450 1345.860 853.982 C 1344.562 855.229 1341.586 857.114 1339.247 858.172 C 1335.061 860.066 1332.243 860.072 1158.747 858.564 C 1061.811 857.721 947.400 856.761 904.500 856.431 C 819.804 855.779 818.912 855.718 813.844 850.287 C 810.041 846.210 809.000 843.681 809.000 838.516 C 809.000 833.351 810.600 829.630 814.310 826.165 C 820.064 820.791 817.451 820.917 911.500 821.478 C 959.350 821.763 1074.550 822.272 1167.500 822.609 M 1155.000 556.589 C 1252.810 556.938 1323.028 557.568 1325.205 558.118 C 1329.572 559.220 1334.483 563.100 1336.536 567.069 C 1338.381 570.637 1338.426 579.044 1336.624 583.357 C 1334.851 587.601 1328.510 592.814 1324.118 593.638 C 1321.111 594.202 1054.102 592.078 885.000 590.145 C 829.664 589.513 825.234 589.334 821.694 587.592 C 811.280 582.467 808.783 568.372 816.910 560.586 C 823.032 554.721 820.112 554.885 908.000 555.465 C 952.275 555.756 1063.425 556.262 1155.000 556.589 M 1252.638 1096.500 C 1253.126 1097.772 1256.656 1098.001 1275.857 1098.006 C 1288.539 1098.009 1300.158 1098.472 1302.269 1099.058 C 1310.421 1101.322 1315.811 1110.412 1314.436 1119.581 C 1312.873 1129.999 1305.680 1135.000 1292.257 1135.000 C 1285.784 1135.000 1283.809 1135.333 1283.362 1136.500 C 1282.639 1138.383 1280.576 1138.413 1277.715 1136.583 C 1274.960 1134.820 1248.039 1134.412 975.500 1132.004 C 835.200 1130.764 816.223 1130.415 812.487 1128.999 C 798.807 1123.815 798.045 1104.610 811.251 1097.872 L 815.500 1095.704 946.500 1096.356 C 1018.550 1096.715 1115.789 1097.297 1162.586 1097.651 C 1241.042 1098.245 1247.722 1098.166 1248.305 1096.647 C 1249.095 1094.589 1251.869 1094.494 1252.638 1096.500 M 1415.329 504.364 C 1421.304 506.861 1423.315 510.548 1427.454 526.595 C 1429.569 534.793 1431.702 541.950 1432.195 542.500 C 1432.687 543.050 1445.802 544.212 1461.338 545.082 C 1487.584 546.552 1489.976 546.843 1495.086 549.182 C 1498.111 550.567 1502.241 552.010 1504.263 552.390 C 1511.007 553.655 1517.000 560.780 1517.000 567.532 C 1517.000 568.961 1516.125 572.238 1515.056 574.815 C 1513.483 578.604 1512.451 587.745 1509.653 622.636 C 1505.828 670.345 1505.550 671.717 1498.201 679.336 C 1491.103 686.694 1486.935 688.030 1466.082 689.626 C 1455.862 690.409 1441.650 691.151 1434.500 691.275 C 1422.667 691.480 1421.026 691.286 1416.221 689.114 C 1409.717 686.175 1402.780 678.711 1400.543 672.244 C 1398.762 667.097 1398.514 662.448 1397.014 606.070 C 1396.396 582.833 1396.433 570.080 1397.128 566.841 C 1398.106 562.277 1397.834 561.110 1391.578 543.077 C 1387.960 532.646 1385.000 522.490 1385.000 520.507 C 1385.000 512.816 1389.939 507.592 1399.657 505.004 C 1408.127 502.747 1411.162 502.623 1415.329 504.364 M 1163.000 902.045 C 1257.676 902.703 1322.694 903.535 1326.000 904.131 C 1329.025 904.677 1332.997 905.374 1334.827 905.680 C 1336.669 905.989 1338.378 906.965 1338.658 907.868 C 1338.935 908.766 1340.078 911.456 1341.199 913.846 C 1344.926 921.796 1342.088 932.397 1335.782 934.083 C 1333.598 934.667 1012.988 936.780 991.039 936.356 C 984.290 936.225 983.360 935.957 981.289 933.550 C 979.165 931.080 979.000 929.979 979.000 918.259 C 979.000 906.668 979.179 905.439 981.174 903.314 C 983.818 900.501 962.242 900.651 1163.000 902.045 M 1180.500 636.508 C 1286.372 637.421 1316.176 638.047 1319.483 639.429 C 1323.618 641.156 1328.650 647.100 1330.113 651.983 C 1331.571 656.849 1330.084 663.007 1326.613 666.478 L 1324.379 668.712 1208.440 669.351 C 1144.673 669.703 1067.650 670.106 1037.278 670.246 L 982.056 670.500 979.778 668.225 C 977.674 666.124 977.475 664.933 977.175 652.607 L 976.850 639.263 979.675 637.004 L 982.500 634.746 1052.500 635.377 C 1091.000 635.724 1148.600 636.233 1180.500 636.508 M 1201.851 1178.085 C 1252.095 1178.658 1294.195 1179.504 1295.408 1179.965 C 1298.796 1181.253 1303.896 1185.899 1305.654 1189.298 C 1309.015 1195.797 1306.758 1207.004 1301.702 1208.921 C 1300.491 1209.381 1224.800 1210.086 1133.500 1210.489 L 967.500 1211.221 965.316 1208.860 C 963.330 1206.713 963.109 1205.290 962.874 1193.115 C 962.620 1179.990 962.663 1179.691 965.058 1177.728 C 967.779 1175.497 975.908 1175.509 1201.851 1178.085 "/></g>
<g fill="#180D91FD" stroke="#180D91FD">
<path d="M 712.266 1035.000 C 689.879 1079.824 690.698 1078.742 680.070 1077.508 C 674.460 1076.857 674.237 1076.920 673.630 1079.340 C 673.284 1080.718 672.989 1091.668 672.975 1103.673 C 672.961 1115.678 672.724 1141.025 672.448 1160.000 C 670.440 1298.224 669.788 1537.463 671.232 1606.500 C 672.628 1673.297 672.480 1671.723 678.588 1684.500 C 682.059 1691.761 691.490 1703.433 693.087 1702.446 C 693.589 1702.136 694.000 1702.374 694.000 1702.975 C 694.000 1704.162 701.026 1708.653 702.250 1708.248 C 702.663 1708.112 703.000 1708.389 703.000 1708.864 C 703.000 1709.810 709.742 1712.554 714.500 1713.544 C 724.127 1715.548 728.361 1716.014 736.000 1715.906 C 740.675 1715.840 749.675 1716.072 756.000 1716.422 C 770.911 1717.248 866.294 1719.889 903.000 1720.493 C 918.675 1720.751 935.550 1721.194 940.500 1721.479 C 945.450 1721.763 965.475 1722.260 985.000 1722.583 C 1004.525 1722.905 1032.875 1723.393 1048.000 1723.665 C 1192.473 1726.271 1410.202 1726.219 1489.000 1723.559 C 1498.075 1723.253 1508.650 1723.021 1512.500 1723.043 C 1523.970 1723.111 1542.004 1721.162 1549.696 1719.023 C 1570.544 1713.228 1591.434 1697.758 1603.408 1679.249 C 1608.212 1671.821 1613.991 1659.368 1614.396 1655.567 C 1614.522 1654.384 1614.885 1652.984 1615.202 1652.458 C 1615.991 1651.146 1618.012 1641.071 1618.101 1638.000 C 1618.226 1633.724 1619.044 1596.739 1619.628 1569.000 C 1619.934 1554.425 1620.353 1528.325 1620.558 1511.000 C 1620.762 1493.675 1621.165 1472.975 1621.452 1465.000 C 1622.287 1441.779 1622.461 1383.444 1621.692 1384.689 C 1621.306 1385.315 1618.854 1386.913 1616.245 1388.241 C 1613.635 1389.569 1609.340 1391.885 1606.700 1393.388 L 1601.900 1396.120 1598.200 1392.889 C 1593.432 1388.727 1590.743 1386.299 1584.000 1380.070 C 1578.166 1374.681 1578.344 1374.720 1569.500 1376.911 C 1567.300 1377.456 1565.384 1377.904 1565.242 1377.907 C 1565.100 1377.910 1563.300 1378.230 1561.242 1378.617 C 1559.184 1379.005 1552.550 1379.379 1546.500 1379.449 C 1540.450 1379.519 1538.115 1379.671 1541.311 1379.788 L 1547.121 1380.000 1546.554 1386.750 C 1546.241 1390.463 1545.540 1402.950 1544.994 1414.500 C 1544.449 1426.050 1543.733 1438.088 1543.403 1441.250 L 1542.804 1447.000 1547.968 1447.000 C 1554.616 1447.000 1557.000 1448.288 1557.000 1451.880 C 1557.000 1456.052 1554.215 1458.000 1548.251 1458.000 C 1543.410 1458.000 1543.127 1458.148 1542.502 1460.990 C 1542.141 1462.634 1541.949 1465.672 1542.074 1467.740 C 1542.415 1473.332 1541.024 1486.616 1539.325 1494.000 C 1538.503 1497.575 1537.728 1500.950 1537.604 1501.500 C 1536.964 1504.330 1530.192 1516.192 1526.404 1521.120 C 1517.527 1532.666 1504.687 1541.720 1491.000 1546.085 C 1482.557 1548.778 1478.938 1549.307 1460.500 1550.543 C 1456.650 1550.801 1449.900 1551.254 1445.500 1551.549 C 1441.100 1551.844 1436.825 1552.095 1436.000 1552.106 C 1435.175 1552.118 1425.275 1552.529 1414.000 1553.020 C 1402.725 1553.512 1385.625 1554.221 1376.000 1554.597 C 1353.668 1555.468 1172.214 1555.425 1140.500 1554.541 C 1127.300 1554.173 1107.950 1553.639 1097.500 1553.354 C 1044.116 1551.901 1002.866 1550.561 979.500 1549.521 C 972.900 1549.227 962.325 1548.765 956.000 1548.494 C 926.637 1547.237 875.489 1544.748 834.000 1542.555 C 808.975 1541.233 787.441 1540.118 786.146 1540.078 C 784.852 1540.038 780.802 1539.499 777.146 1538.880 C 773.491 1538.261 769.736 1537.670 768.802 1537.566 C 767.869 1537.463 763.225 1535.456 758.484 1533.107 C 748.678 1528.248 738.137 1519.036 732.835 1510.692 C 731.021 1507.837 729.188 1505.349 728.762 1505.165 C 728.336 1504.980 728.242 1504.418 728.553 1503.915 C 728.864 1503.412 728.737 1503.000 728.272 1503.000 C 727.806 1503.000 727.352 1502.028 727.263 1500.840 C 727.173 1499.652 726.740 1498.414 726.300 1498.090 C 725.860 1497.765 725.427 1497.050 725.338 1496.500 C 725.249 1495.950 724.494 1492.125 723.661 1488.000 C 721.430 1476.949 720.950 1453.974 720.945 1358.000 C 720.941 1276.167 721.761 1213.356 723.996 1124.500 C 726.071 1042.008 726.478 1024.211 726.489 1015.500 L 726.500 1006.500 712.266 1035.000 "/></g>
<g fill="#180D91FD" stroke="#180D91FD">
<path d="M 778.500 302.113 C 768.050 302.551 755.900 303.355 751.500 303.898 C 742.812 304.971 730.881 308.319 728.771 310.276 C 728.046 310.949 726.828 311.637 726.064 311.804 C 723.727 312.316 714.096 319.062 712.125 321.569 C 711.102 322.869 709.993 323.660 709.661 323.327 C 709.328 322.995 708.605 323.910 708.053 325.361 C 707.501 326.813 706.627 328.000 706.110 328.000 C 703.869 328.000 692.513 346.403 693.634 348.217 C 693.900 348.648 693.701 349.000 693.191 349.000 C 690.006 349.000 687.161 373.781 687.048 402.500 C 687.020 409.650 686.787 421.800 686.530 429.500 C 685.757 452.642 683.928 527.279 684.055 530.500 C 684.120 532.150 683.877 543.850 683.516 556.500 C 682.121 605.302 680.080 699.332 680.041 716.583 C 680.018 726.529 679.732 734.935 679.404 735.262 C 679.077 735.590 678.911 742.977 679.035 751.679 C 679.159 760.380 679.219 768.175 679.167 769.000 C 679.116 769.825 678.832 781.975 678.537 796.000 C 678.242 810.025 677.680 832.026 677.288 844.890 C 676.628 866.571 676.696 868.161 678.217 866.640 C 679.119 865.738 680.339 865.000 680.929 865.000 C 681.518 865.000 682.000 864.550 682.000 864.000 C 682.000 863.450 682.694 863.000 683.542 863.000 C 684.390 863.000 686.033 862.116 687.193 861.035 C 688.354 859.954 689.685 859.305 690.151 859.594 C 690.618 859.882 691.000 859.641 691.000 859.059 C 691.000 858.477 691.653 858.000 692.450 858.000 C 693.248 858.000 694.359 857.213 694.920 856.250 C 695.481 855.288 695.953 854.855 695.970 855.289 C 695.986 855.723 696.985 855.160 698.189 854.039 C 699.392 852.918 700.967 852.000 701.689 852.000 C 702.410 852.000 703.000 851.550 703.000 851.000 C 703.000 850.450 703.567 850.000 704.259 850.000 C 704.952 850.000 706.092 849.083 706.792 847.961 C 707.492 846.840 708.455 846.163 708.931 846.458 C 709.408 846.752 710.855 845.877 712.149 844.514 C 713.442 843.150 714.972 842.027 715.548 842.017 C 716.125 842.008 718.150 840.439 720.048 838.532 C 721.947 836.624 723.898 835.049 724.385 835.032 C 724.872 835.014 726.300 833.988 727.559 832.750 C 728.817 831.513 731.119 829.451 732.673 828.170 C 734.228 826.888 734.884 826.259 734.131 826.772 C 732.649 827.782 732.513 819.895 733.539 792.500 C 734.149 776.227 735.797 730.185 735.866 727.500 C 735.894 726.400 736.845 702.550 737.978 674.500 C 739.112 646.450 740.004 622.375 739.961 621.000 C 739.917 619.625 740.171 612.425 740.525 605.000 C 740.879 597.575 741.394 585.650 741.669 578.500 C 742.156 565.858 742.583 554.756 743.573 529.000 C 746.511 452.541 747.619 435.046 749.968 428.000 C 756.102 409.604 770.770 394.357 788.146 388.314 C 801.836 383.554 809.631 383.183 890.000 383.476 C 930.975 383.625 975.750 384.246 989.500 384.857 C 1022.463 386.320 1061.120 387.912 1063.000 387.884 C 1063.825 387.872 1072.150 388.295 1081.500 388.823 C 1090.850 389.352 1099.400 389.782 1100.500 389.779 C 1101.600 389.775 1106.550 390.040 1111.500 390.366 C 1116.450 390.692 1124.550 391.208 1129.500 391.512 C 1134.450 391.816 1152.675 392.965 1170.000 394.065 C 1187.325 395.165 1204.650 396.264 1208.500 396.507 C 1212.350 396.750 1221.133 397.414 1228.018 397.983 C 1234.903 398.551 1241.653 398.990 1243.018 398.958 C 1244.383 398.927 1257.200 399.804 1271.500 400.909 C 1285.800 402.013 1298.400 402.929 1299.500 402.944 C 1301.792 402.975 1307.509 403.411 1332.000 405.424 C 1341.625 406.215 1353.100 407.113 1357.500 407.419 C 1361.900 407.726 1373.600 408.657 1383.500 409.490 C 1393.400 410.322 1409.150 411.646 1418.500 412.432 C 1427.850 413.218 1436.175 413.887 1437.000 413.918 C 1438.824 413.987 1444.311 414.469 1471.653 416.962 C 1483.288 418.022 1493.638 418.900 1494.653 418.912 C 1508.834 419.077 1524.386 422.585 1535.048 428.025 C 1537.497 429.274 1539.500 430.163 1539.500 430.001 C 1539.500 429.534 1544.769 434.017 1551.213 439.966 C 1557.318 445.602 1564.373 455.486 1567.298 462.500 C 1569.985 468.944 1571.264 472.398 1571.557 474.000 C 1575.965 498.126 1575.692 637.484 1570.929 794.987 C 1570.389 812.854 1569.971 829.054 1570.000 830.987 C 1570.052 834.384 1569.508 851.870 1568.411 882.000 C 1568.121 889.975 1567.660 903.250 1567.386 911.500 C 1567.112 919.750 1566.662 932.575 1566.387 940.000 C 1566.111 947.425 1565.693 959.800 1565.457 967.500 C 1565.220 975.200 1564.819 985.550 1564.565 990.500 C 1564.310 995.450 1563.785 1007.993 1563.397 1018.374 L 1562.692 1037.248 1565.305 1035.536 C 1566.980 1034.438 1568.921 1034.031 1570.709 1034.403 C 1572.244 1034.722 1575.300 1035.244 1577.500 1035.563 C 1583.611 1036.448 1584.328 1036.590 1586.751 1037.391 C 1591.362 1038.916 1592.062 1045.302 1587.791 1046.882 C 1586.673 1047.295 1582.325 1047.032 1578.129 1046.297 C 1573.933 1045.561 1569.103 1044.736 1567.395 1044.462 C 1565.509 1044.159 1563.854 1043.087 1563.179 1041.732 C 1562.223 1039.809 1562.081 1040.191 1562.153 1044.500 C 1562.199 1047.250 1561.861 1058.050 1561.402 1068.500 C 1560.944 1078.950 1560.553 1089.525 1560.534 1092.000 L 1560.500 1096.500 1562.796 1092.839 C 1564.059 1090.826 1565.746 1088.928 1566.544 1088.621 C 1567.343 1088.315 1571.035 1088.959 1574.748 1090.053 C 1578.462 1091.146 1583.300 1092.534 1585.500 1093.136 C 1587.700 1093.739 1590.625 1094.587 1592.000 1095.020 C 1593.375 1095.454 1596.649 1096.364 1599.276 1097.042 C 1601.902 1097.720 1604.286 1098.654 1604.573 1099.118 C 1604.860 1099.582 1605.309 1104.133 1605.570 1109.231 C 1606.691 1131.061 1606.571 1130.566 1611.542 1133.756 C 1612.619 1134.447 1614.175 1135.325 1615.000 1135.706 C 1616.580 1136.436 1616.632 1136.474 1621.729 1140.556 L 1624.959 1143.143 1624.659 1101.821 L 1624.360 1060.500 1617.430 1057.710 C 1613.618 1056.175 1609.603 1054.028 1608.507 1052.939 C 1606.662 1051.105 1606.627 1050.755 1608.040 1048.229 C 1610.022 1044.687 1612.408 1044.433 1619.335 1047.024 L 1625.000 1049.144 1625.000 1055.053 C 1625.000 1060.547 1625.178 1061.007 1627.540 1061.599 C 1630.911 1062.445 1634.203 1059.533 1633.797 1056.065 C 1633.588 1054.278 1632.288 1052.859 1629.410 1051.276 L 1625.320 1049.027 1624.710 1016.752 C 1624.375 999.002 1624.358 978.858 1624.672 971.989 C 1625.338 957.472 1623.407 778.636 1621.936 718.500 C 1620.181 646.790 1619.056 608.358 1617.717 574.500 C 1617.435 567.350 1616.925 553.175 1616.584 543.000 C 1616.243 532.825 1615.731 522.925 1615.447 521.000 C 1615.162 519.075 1614.765 513.450 1614.563 508.500 C 1614.361 503.550 1613.923 495.225 1613.590 490.000 C 1613.256 484.775 1612.994 479.267 1613.007 477.759 C 1613.098 467.131 1607.670 408.032 1606.005 401.518 C 1603.895 393.270 1598.480 381.000 1596.949 381.000 C 1596.427 381.000 1596.112 380.615 1596.250 380.144 C 1596.743 378.456 1586.975 367.024 1580.425 361.621 C 1572.461 355.052 1562.258 349.841 1552.000 347.103 C 1545.855 345.463 1509.920 341.049 1502.500 341.023 C 1501.400 341.019 1496.900 340.579 1492.500 340.044 C 1488.100 339.510 1480.900 338.796 1476.500 338.458 C 1472.100 338.120 1449.600 336.097 1426.500 333.963 C 1403.400 331.828 1381.350 329.839 1377.500 329.542 C 1373.650 329.246 1366.000 328.563 1360.500 328.026 C 1355.000 327.489 1349.600 327.027 1348.500 327.000 C 1343.421 326.875 1334.894 326.138 1332.330 325.602 C 1330.774 325.277 1324.606 324.775 1318.625 324.487 C 1312.644 324.199 1307.464 323.787 1307.114 323.570 C 1306.763 323.354 1301.532 322.908 1295.488 322.580 C 1289.445 322.251 1279.775 321.590 1274.000 321.109 C 1268.225 320.629 1262.600 320.216 1261.500 320.192 C 1260.400 320.168 1245.100 319.041 1227.500 317.687 C 1209.900 316.332 1194.825 315.198 1194.000 315.165 C 1192.022 315.086 1180.513 314.228 1164.721 312.981 C 1157.693 312.427 1150.718 311.987 1149.221 312.005 C 1147.725 312.022 1133.000 311.149 1116.500 310.063 C 1100.000 308.978 1080.200 307.806 1072.500 307.459 C 1064.800 307.112 1054.225 306.613 1049.000 306.350 C 1043.775 306.086 1035.225 305.688 1030.000 305.465 C 1024.775 305.242 1010.150 304.602 997.500 304.041 C 930.106 301.057 825.586 300.136 778.500 302.113 "/></g>
<g fill="#BDD0F9FD" stroke="#BDD0F9FD">
<path d="M 256.914 539.956 C 250.208 541.988 245.000 548.542 245.000 554.948 C 245.000 556.614 246.319 562.144 247.932 567.238 C 267.328 628.506 288.530 731.489 300.956 824.783 C 312.078 908.283 318.633 972.595 325.493 1065.500 C 329.649 1121.789 332.990 1148.704 340.574 1187.000 C 354.296 1256.284 374.935 1318.034 404.982 1379.707 C 413.255 1396.686 426.437 1421.671 429.884 1426.905 C 430.617 1428.018 432.070 1427.184 436.851 1422.905 C 442.021 1418.280 443.686 1415.841 448.397 1406.000 C 460.614 1380.479 473.325 1333.747 482.397 1280.996 L 484.820 1266.910 477.375 1244.705 C 436.729 1123.476 404.984 989.938 391.508 883.500 C 388.033 856.058 387.997 854.230 390.888 851.889 C 395.184 848.411 400.207 849.947 401.851 855.242 C 402.407 857.034 403.157 861.425 403.517 865.000 C 404.883 878.552 412.193 928.809 415.536 947.631 C 427.526 1015.140 446.070 1094.043 464.977 1158.000 C 471.565 1180.288 488.056 1233.195 488.811 1234.466 C 489.126 1234.997 491.307 1222.847 493.657 1207.466 C 498.694 1174.491 500.963 1163.982 504.596 1156.802 C 512.067 1142.036 527.298 1127.672 549.593 1114.367 L 558.686 1108.941 560.329 1099.721 C 561.867 1091.090 564.178 1071.765 563.711 1071.443 C 563.595 1071.363 556.075 1072.562 547.000 1074.106 C 513.744 1079.767 491.091 1080.052 474.782 1075.014 C 459.763 1070.376 452.490 1061.377 452.611 1047.584 C 452.691 1038.478 455.720 1028.370 462.097 1015.928 C 466.644 1007.055 474.221 994.869 479.871 987.341 L 482.241 984.183 479.739 980.841 C 473.652 972.714 471.515 964.570 473.044 955.325 C 474.867 944.297 470.798 934.198 462.258 928.556 C 460.191 927.191 455.009 924.935 450.742 923.544 C 441.193 920.431 436.549 917.566 431.200 911.490 C 424.536 903.919 422.624 897.694 422.604 883.500 C 422.578 864.894 426.962 851.880 437.664 838.800 C 443.714 831.405 455.211 823.008 465.540 818.440 C 471.934 815.612 486.653 811.518 494.323 810.433 C 504.437 809.003 512.835 799.760 514.423 788.312 C 514.962 784.427 514.629 783.632 509.829 777.312 C 446.437 693.857 365.071 612.900 283.170 551.790 C 266.884 539.638 263.296 538.021 256.914 539.956 "/></g>
<g fill="#7D95F4FD" stroke="#7D95F4FD">
<path d="M 419.970 260.379 C 417.514 261.172 415.976 262.571 414.707 265.167 C 412.971 268.718 412.978 269.082 414.923 276.697 C 421.009 300.536 424.875 340.314 425.885 389.500 C 426.292 409.300 426.214 469.825 425.713 524.000 C 425.211 578.175 425.122 635.100 425.515 650.500 L 426.229 678.500 438.724 692.000 C 462.992 718.220 492.245 753.127 509.820 776.837 C 513.219 781.422 516.000 784.438 516.000 783.539 C 516.000 780.813 525.054 772.741 532.821 768.542 C 547.890 760.397 548.101 759.652 544.024 729.000 C 532.651 643.490 512.378 539.465 488.438 443.772 C 483.797 425.222 480.000 409.182 480.000 408.129 C 480.000 405.951 482.071 404.808 483.933 405.959 C 485.773 407.096 500.043 456.089 514.382 510.500 C 528.207 562.956 545.970 646.125 555.497 703.000 C 558.031 718.125 560.220 730.918 560.362 731.429 C 560.503 731.939 562.801 728.564 565.467 723.929 C 572.241 712.152 582.425 702.124 592.446 697.365 C 599.101 694.205 601.376 693.649 609.377 693.231 C 623.536 692.490 634.589 696.330 644.845 705.550 C 651.983 711.968 654.356 716.810 654.378 725.000 C 654.396 731.898 651.020 741.221 646.923 745.582 C 644.967 747.664 644.972 747.688 648.939 754.585 C 656.889 768.410 662.529 790.484 661.789 804.877 C 660.771 824.651 651.118 833.924 633.250 832.293 C 629.813 831.979 627.003 832.122 627.006 832.611 C 627.010 833.100 625.386 845.563 623.397 860.308 C 621.409 875.052 619.973 887.306 620.206 887.540 C 620.440 887.773 623.704 887.086 627.459 886.012 C 631.214 884.938 634.634 884.274 635.058 884.536 C 636.259 885.278 651.177 879.490 664.558 873.089 L 676.697 867.282 677.341 841.391 C 677.695 827.151 678.252 799.075 678.579 779.000 C 679.154 743.679 679.089 741.854 676.576 722.500 C 660.387 597.830 616.177 484.255 545.337 385.350 C 515.338 343.466 474.496 299.264 437.000 268.099 C 427.095 259.867 424.788 258.821 419.970 260.379 "/></g>
<g fill="#FD908DFD" stroke="#FD908DFD">
<path d="M 1557.465 1101.353 L 1548.823 1113.705 1537.569 1114.348 C 1527.660 1114.914 1513.384 1116.907 1507.500 1118.546 C 1505.978 1118.969 1502.676 1116.573 1493.708 1108.539 C 1482.978 1098.926 1481.717 1098.078 1479.708 1099.123 C 1471.714 1103.281 1448.400 1116.555 1447.939 1117.210 C 1447.630 1117.649 1448.628 1124.823 1450.156 1133.153 L 1452.935 1148.299 1445.063 1156.615 C 1438.163 1163.904 1427.990 1177.530 1426.814 1181.057 C 1426.535 1181.896 1421.432 1182.562 1410.488 1183.187 C 1401.733 1183.688 1394.430 1184.236 1394.261 1184.406 C 1393.389 1185.278 1383.969 1219.742 1384.214 1221.166 C 1384.371 1222.082 1390.042 1226.807 1396.816 1231.666 L 1409.131 1240.500 1409.586 1251.101 C 1409.980 1260.270 1410.947 1267.588 1413.470 1280.500 C 1414.001 1283.215 1413.107 1284.545 1404.063 1294.500 C 1398.567 1300.550 1394.054 1306.193 1394.035 1307.039 C 1394.002 1308.507 1410.192 1338.463 1412.093 1340.451 C 1412.665 1341.050 1418.577 1340.385 1428.043 1338.656 L 1443.084 1335.910 1450.792 1343.038 C 1455.031 1346.959 1462.550 1352.880 1467.500 1356.197 C 1472.450 1359.514 1476.772 1362.964 1477.104 1363.864 C 1477.436 1364.764 1478.016 1371.794 1478.391 1379.487 C 1478.767 1387.180 1479.404 1393.804 1479.806 1394.206 C 1480.565 1394.965 1514.680 1404.972 1516.568 1404.990 C 1517.156 1404.996 1520.756 1400.465 1524.568 1394.923 C 1528.381 1389.381 1532.374 1383.596 1533.441 1382.069 C 1535.349 1379.339 1535.608 1379.280 1548.441 1378.650 C 1555.624 1378.297 1565.278 1377.165 1569.895 1376.134 L 1578.290 1374.259 1587.895 1382.814 C 1593.178 1387.520 1598.525 1392.276 1599.777 1393.384 C 1601.890 1395.255 1602.250 1395.288 1604.777 1393.855 C 1606.275 1393.006 1613.913 1388.799 1621.750 1384.505 C 1632.581 1378.571 1636.000 1376.228 1636.000 1374.738 C 1636.000 1373.660 1634.857 1366.567 1633.461 1358.976 L 1630.922 1345.174 1635.721 1340.337 C 1642.086 1333.921 1646.870 1327.964 1652.899 1318.944 L 1657.874 1311.500 1673.687 1310.500 L 1689.500 1309.500 1694.697 1292.000 C 1697.555 1282.375 1699.917 1273.753 1699.947 1272.840 C 1699.979 1271.816 1695.108 1267.755 1687.250 1262.254 L 1674.500 1253.330 1673.902 1240.915 C 1673.573 1234.087 1672.491 1224.372 1671.497 1219.327 L 1669.690 1210.154 1679.845 1198.829 C 1685.430 1192.600 1690.000 1187.031 1690.000 1186.453 C 1690.000 1185.399 1673.619 1155.463 1671.911 1153.398 C 1671.257 1152.606 1666.715 1153.048 1655.750 1154.972 L 1640.500 1157.649 1632.914 1150.557 C 1628.742 1146.657 1621.092 1140.606 1615.914 1137.111 L 1606.500 1130.757 1605.849 1122.628 C 1605.491 1118.158 1605.154 1111.253 1605.099 1107.285 C 1605.020 1101.490 1604.656 1099.892 1603.250 1099.166 C 1600.787 1097.893 1569.725 1089.000 1567.742 1089.000 C 1566.783 1089.000 1562.532 1094.110 1557.465 1101.353 M 1552.864 1211.881 C 1568.468 1216.737 1578.232 1230.261 1578.220 1247.000 C 1578.213 1256.892 1575.406 1264.301 1569.016 1271.292 C 1561.894 1279.084 1554.821 1282.269 1543.500 1282.782 C 1531.731 1283.315 1525.328 1281.050 1517.116 1273.447 C 1506.972 1264.055 1503.063 1251.111 1506.417 1238.018 C 1511.804 1216.990 1532.272 1205.472 1552.864 1211.881 M 1564.330 1160.432 C 1592.378 1167.547 1613.683 1186.089 1625.513 1213.681 C 1634.045 1233.580 1634.267 1258.428 1626.102 1279.566 C 1621.516 1291.440 1616.385 1299.518 1607.500 1308.850 C 1591.668 1325.478 1573.168 1334.717 1551.254 1336.940 C 1533.893 1338.701 1518.518 1335.867 1502.376 1327.931 C 1479.203 1316.539 1461.842 1295.189 1454.861 1269.500 C 1451.763 1258.098 1451.760 1236.927 1454.854 1225.500 C 1457.240 1216.689 1463.253 1203.400 1467.928 1196.604 C 1472.212 1190.377 1480.965 1181.000 1482.493 1181.000 C 1485.907 1181.000 1484.699 1184.374 1479.150 1190.339 C 1449.214 1222.518 1449.747 1273.379 1480.360 1305.783 C 1501.696 1328.368 1533.578 1337.653 1563.508 1329.998 C 1591.259 1322.900 1613.531 1302.004 1623.194 1274.000 C 1626.397 1264.718 1626.472 1264.110 1626.472 1247.500 C 1626.472 1230.899 1626.396 1230.280 1623.217 1221.135 C 1611.864 1188.478 1585.019 1166.745 1550.750 1162.470 C 1546.920 1161.992 1546.000 1161.502 1546.000 1159.939 C 1546.000 1157.189 1552.206 1157.356 1564.330 1160.432 "/></g>
<g fill="#E95C55FD" stroke="#E95C55FD">
<path d="M 931.073 1355.635 C 929.022 1358.241 929.000 1358.998 929.000 1425.588 C 929.000 1473.490 929.326 1493.621 930.130 1495.385 C 930.751 1496.749 932.439 1498.351 933.880 1498.945 C 935.732 1499.708 992.565 1499.948 1127.838 1499.762 L 1319.177 1499.500 1321.088 1497.139 C 1322.929 1494.866 1323.000 1492.236 1323.000 1426.524 C 1323.000 1358.987 1322.978 1358.242 1320.927 1355.635 L 1318.855 1353.000 1126.000 1353.000 L 933.145 1353.000 931.073 1355.635 M 1120.500 1374.218 C 1126.513 1377.339 1129.730 1380.608 1134.330 1388.271 C 1139.754 1397.306 1141.461 1405.854 1141.464 1424.000 C 1141.467 1441.239 1140.303 1448.331 1135.967 1457.500 C 1130.281 1469.524 1121.700 1476.245 1109.636 1478.123 C 1096.795 1480.122 1082.581 1474.256 1076.210 1464.327 C 1068.213 1451.866 1064.732 1432.829 1066.910 1413.473 C 1068.388 1400.337 1069.969 1395.067 1074.858 1386.980 C 1082.211 1374.817 1090.312 1370.735 1106.000 1371.288 C 1113.864 1371.565 1116.361 1372.070 1120.500 1374.218 M 1007.374 1373.750 C 1007.654 1374.713 1009.069 1381.350 1010.519 1388.500 C 1013.371 1402.570 1018.192 1424.825 1020.504 1434.601 C 1021.298 1437.957 1022.246 1443.244 1022.611 1446.351 C 1022.977 1449.458 1023.583 1452.000 1023.960 1452.000 C 1024.337 1452.000 1025.150 1448.963 1025.767 1445.250 C 1027.040 1437.596 1037.147 1389.011 1039.601 1378.750 L 1041.215 1372.000 1051.108 1372.000 C 1056.548 1372.000 1061.000 1372.155 1061.000 1372.345 C 1061.000 1372.658 1053.402 1405.327 1041.253 1457.250 L 1036.631 1477.000 1024.005 1477.000 L 1011.378 1477.000 1010.191 1472.250 C 1009.098 1467.881 1005.242 1451.385 991.949 1394.219 C 989.227 1382.515 987.000 1372.727 987.000 1372.469 C 987.000 1372.211 991.470 1372.000 996.933 1372.000 C 1005.532 1372.000 1006.934 1372.235 1007.374 1373.750 M 1267.000 1381.000 L 1267.000 1390.000 1253.559 1390.000 L 1240.118 1390.000 1239.809 1402.002 L 1239.500 1414.004 1252.250 1414.002 L 1265.000 1414.000 1265.000 1422.500 L 1265.000 1431.000 1252.250 1430.998 L 1239.500 1430.997 1239.803 1444.998 L 1240.105 1459.000 1253.553 1459.000 L 1267.000 1459.000 1267.000 1468.000 L 1267.000 1477.000 1243.000 1477.000 L 1219.000 1477.000 1219.000 1425.167 C 1219.000 1396.658 1219.300 1373.033 1219.667 1372.667 C 1220.033 1372.300 1230.833 1372.000 1243.667 1372.000 L 1267.000 1372.000 1267.000 1381.000 M 1209.000 1381.000 L 1209.000 1390.000 1199.000 1390.000 L 1189.000 1390.000 1189.000 1433.500 L 1189.000 1477.000 1179.000 1477.000 L 1169.000 1477.000 1169.000 1433.500 L 1169.000 1390.000 1159.000 1390.000 L 1149.000 1390.000 1149.000 1381.000 L 1149.000 1372.000 1179.000 1372.000 L 1209.000 1372.000 1209.000 1381.000 "/></g>
<g fill="#4040E0FD" stroke="#4040E0FD">
<path d="M 549.641 1115.031 C 530.125 1126.222 512.075 1143.139 505.796 1156.126 C 500.240 1167.615 499.249 1172.525 490.987 1229.500 C 479.108 1311.410 467.346 1363.086 452.747 1397.500 C 449.947 1404.100 446.606 1411.485 445.322 1413.911 C 444.038 1416.336 443.123 1418.456 443.288 1418.621 C 443.452 1418.786 454.849 1421.180 468.614 1423.942 C 519.550 1434.162 559.823 1437.053 593.000 1432.869 C 597.675 1432.280 601.840 1431.481 602.255 1431.094 C 602.671 1430.706 604.801 1420.964 606.989 1409.445 C 609.177 1397.925 611.207 1387.375 611.500 1386.000 C 611.794 1384.625 614.512 1370.225 617.541 1354.000 C 620.569 1337.775 625.049 1314.150 627.495 1301.500 C 631.764 1279.424 639.379 1239.612 646.623 1201.500 C 651.118 1177.850 652.172 1164.967 650.953 1148.565 C 650.155 1137.834 647.523 1120.302 646.551 1119.239 C 646.419 1119.096 644.329 1119.690 641.906 1120.560 C 633.972 1123.408 623.025 1125.000 611.370 1125.000 C 594.309 1125.000 581.432 1121.814 564.835 1113.485 L 558.171 1110.141 549.641 1115.031 "/></g>
<g fill="#BDD0F9FD" stroke="#BDD0F9FD">
<path d="M 661.922 1078.687 C 661.329 1080.234 657.774 1089.873 654.020 1100.106 L 647.195 1118.711 648.517 1124.397 C 652.725 1142.497 652.990 1174.428 649.082 1192.500 C 647.068 1201.818 643.801 1218.844 624.520 1320.500 C 601.431 1442.234 603.206 1431.543 599.524 1471.000 L 596.117 1507.500 600.421 1517.000 C 614.411 1547.881 644.581 1608.941 658.882 1635.316 C 663.897 1644.565 668.000 1653.023 668.000 1654.112 C 668.000 1656.595 663.695 1661.000 661.268 1661.000 C 657.739 1661.000 655.065 1657.862 648.686 1646.238 C 639.303 1629.137 615.802 1582.712 604.399 1558.750 C 598.968 1547.338 594.272 1538.000 593.964 1538.000 C 593.193 1538.000 587.619 1603.608 587.553 1613.456 L 587.500 1621.412 601.355 1633.179 C 631.249 1658.568 653.098 1674.334 660.005 1675.501 C 662.304 1675.889 666.580 1675.908 669.506 1675.543 L 674.825 1674.878 673.850 1671.689 C 673.314 1669.935 672.366 1656.125 671.744 1641.000 C 670.137 1601.901 670.193 1303.915 671.830 1184.500 C 673.130 1089.631 673.117 1087.379 671.241 1082.000 C 669.512 1077.046 669.008 1076.469 666.160 1076.187 C 663.483 1075.921 662.834 1076.304 661.922 1078.687 "/></g>
<g fill="#FD908DFD" stroke="#FD908DFD">
<path d="M 1375.202 943.250 C 1373.079 946.138 1370.538 949.738 1369.556 951.250 C 1367.946 953.728 1367.197 954.000 1361.973 954.000 C 1358.785 954.000 1352.669 954.671 1348.383 955.491 L 1340.591 956.982 1337.545 954.257 C 1335.870 952.758 1332.641 949.796 1330.368 947.674 L 1326.237 943.816 1315.618 949.646 C 1309.377 953.073 1305.001 956.100 1305.001 956.988 C 1305.002 957.820 1305.670 962.289 1306.485 966.921 L 1307.967 975.342 1303.151 980.434 C 1300.502 983.234 1296.621 988.107 1294.526 991.263 L 1290.717 997.000 1282.108 997.015 C 1277.374 997.024 1272.974 997.365 1272.331 997.774 C 1271.241 998.468 1265.000 1017.792 1265.000 1020.475 C 1265.000 1021.143 1268.585 1024.122 1272.967 1027.095 L 1280.934 1032.500 1280.988 1039.500 C 1281.018 1043.350 1281.665 1049.425 1282.426 1053.000 C 1283.981 1060.303 1284.577 1059.035 1274.556 1069.751 L 1270.581 1074.003 1274.467 1081.251 C 1276.604 1085.238 1279.369 1090.132 1280.611 1092.126 L 1282.869 1095.752 1292.235 1094.048 L 1301.601 1092.345 1307.050 1097.234 C 1310.048 1099.923 1314.803 1103.656 1317.618 1105.528 C 1323.388 1109.365 1324.000 1110.950 1324.000 1122.054 L 1324.000 1128.858 1329.750 1130.550 C 1332.913 1131.481 1338.296 1133.052 1341.712 1134.040 L 1347.924 1135.837 1353.724 1127.724 L 1359.524 1119.611 1367.012 1119.286 C 1371.130 1119.107 1376.660 1118.519 1379.299 1117.980 C 1386.402 1116.530 1386.357 1116.514 1393.664 1123.000 C 1397.381 1126.300 1400.797 1129.000 1401.254 1129.000 C 1402.944 1129.000 1421.270 1118.461 1421.748 1117.214 C 1422.021 1116.504 1421.533 1112.053 1420.665 1107.323 L 1419.086 1098.724 1424.115 1093.112 C 1426.881 1090.025 1430.574 1085.178 1432.322 1082.340 L 1435.500 1077.181 1445.750 1076.471 C 1451.388 1076.081 1456.000 1075.599 1456.000 1075.401 C 1456.000 1075.204 1457.381 1070.262 1459.069 1064.421 C 1460.757 1058.580 1461.913 1053.217 1461.639 1052.503 C 1461.365 1051.789 1457.734 1048.826 1453.571 1045.919 L 1446.000 1040.633 1445.979 1033.566 C 1445.968 1029.680 1445.361 1023.649 1444.631 1020.164 L 1443.304 1013.829 1447.902 1008.659 C 1457.277 998.120 1456.957 1000.580 1450.514 988.570 C 1447.396 982.756 1444.382 978.000 1443.816 978.000 C 1443.250 978.000 1438.775 978.734 1433.871 979.631 L 1424.956 981.262 1419.228 975.811 C 1416.078 972.813 1411.392 969.128 1408.815 967.623 C 1403.731 964.653 1403.429 963.754 1402.741 949.515 L 1402.500 944.529 1391.500 941.279 C 1385.450 939.491 1380.177 938.022 1379.782 938.014 C 1379.386 938.006 1377.326 940.363 1375.202 943.250 M 1377.404 980.975 C 1388.415 983.791 1396.388 988.336 1404.588 996.470 C 1435.531 1027.163 1422.605 1079.297 1380.777 1092.511 C 1371.464 1095.453 1358.735 1095.863 1349.711 1093.513 C 1329.483 1088.244 1313.755 1072.760 1307.612 1052.068 C 1305.583 1045.232 1305.518 1030.402 1307.485 1023.000 C 1310.667 1011.031 1321.565 994.000 1326.043 994.000 C 1327.080 994.000 1328.400 994.880 1328.976 995.954 C 1329.852 997.592 1329.290 998.733 1325.505 1002.994 C 1302.949 1028.391 1310.525 1068.161 1340.756 1083.050 C 1361.281 1093.159 1383.917 1089.352 1400.015 1073.084 C 1410.188 1062.805 1414.966 1051.268 1414.988 1036.932 C 1415.028 1011.768 1395.915 989.857 1370.762 986.228 C 1365.074 985.407 1362.774 983.182 1364.930 980.584 C 1366.625 978.542 1368.067 978.587 1377.404 980.975 M 1375.208 1016.724 C 1385.894 1022.508 1389.918 1036.437 1384.153 1047.682 C 1375.857 1063.859 1351.193 1063.955 1342.929 1047.842 C 1338.554 1039.310 1339.641 1029.116 1345.679 1022.062 C 1353.499 1012.926 1364.513 1010.935 1375.208 1016.724 "/></g>
<g fill="#180D91FD" stroke="#180D91FD">
<path d="M 559.036 736.561 C 556.031 742.577 553.475 748.121 553.356 748.881 C 553.236 749.640 552.602 750.765 551.947 751.381 C 551.090 752.186 551.108 751.798 552.013 750.000 L 553.271 747.500 550.636 749.924 C 549.186 751.258 547.933 751.933 547.852 751.424 C 547.771 750.916 547.644 751.175 547.570 752.000 C 547.191 756.248 542.754 762.657 538.253 765.457 C 535.639 767.083 533.275 768.658 533.000 768.957 C 532.725 769.256 531.877 769.633 531.115 769.795 C 528.564 770.338 521.087 776.019 518.559 779.334 C 516.516 782.012 513.419 791.000 512.575 796.702 C 512.477 797.363 511.563 798.826 510.543 799.952 C 509.524 801.078 509.096 802.000 509.592 802.000 C 510.088 802.000 508.269 803.581 505.551 805.514 C 500.847 808.858 493.907 811.595 491.284 811.139 C 487.995 810.568 468.155 816.830 461.000 820.697 C 455.029 823.925 443.993 831.327 444.459 831.792 C 444.662 831.995 443.028 833.786 440.829 835.773 C 436.226 839.932 430.783 847.449 431.706 848.373 C 432.051 848.718 431.864 849.000 431.290 849.000 C 429.958 849.000 426.679 856.630 424.413 865.000 C 421.707 874.993 421.951 893.765 424.882 901.000 C 426.107 904.025 427.846 907.063 428.746 907.750 C 429.646 908.438 429.983 909.000 429.495 909.000 C 428.100 909.000 435.120 915.977 439.000 918.446 C 442.754 920.835 450.213 923.830 453.534 924.281 C 459.355 925.072 470.282 934.291 471.594 939.518 C 471.937 940.883 472.559 942.000 472.978 942.000 C 473.397 942.000 473.520 945.713 473.251 950.250 C 472.983 954.788 472.822 960.722 472.894 963.438 C 473.037 968.821 477.104 979.000 479.111 979.000 C 479.783 979.000 480.060 979.273 479.727 979.606 C 479.393 979.940 479.993 981.150 481.060 982.295 C 482.127 983.440 483.000 983.923 483.000 983.369 C 483.000 982.814 484.238 980.954 485.750 979.236 C 487.263 977.518 489.850 974.485 491.500 972.496 C 493.150 970.508 495.738 967.592 497.250 966.017 C 498.763 964.442 500.000 962.852 500.000 962.482 C 500.000 960.292 525.565 934.997 534.000 928.841 C 541.684 923.234 555.180 914.904 562.750 911.097 C 565.088 909.921 567.057 908.406 567.128 907.730 C 567.463 904.498 568.068 901.530 570.943 889.000 C 572.646 881.575 574.473 873.475 575.001 871.000 C 575.529 868.525 576.669 863.350 577.534 859.500 C 578.399 855.650 579.300 851.600 579.536 850.500 C 579.773 849.400 580.233 847.270 580.559 845.767 C 580.885 844.263 581.147 842.809 581.140 842.535 C 581.134 842.261 581.567 840.566 582.103 838.768 C 582.639 836.971 583.501 833.475 584.019 831.000 C 584.538 828.525 585.645 823.350 586.481 819.500 C 588.448 810.438 588.492 810.812 585.000 807.157 C 583.337 805.417 582.000 802.926 582.000 801.568 C 582.000 800.221 581.511 798.816 580.913 798.446 C 580.315 798.077 580.043 796.942 580.309 795.926 C 580.635 794.681 579.631 793.085 577.235 791.039 C 575.279 789.367 574.088 787.986 574.589 787.968 C 575.090 787.951 574.759 787.373 573.853 786.684 C 571.485 784.882 569.258 778.970 569.706 775.673 C 569.917 774.118 571.402 771.562 573.006 769.994 C 578.850 764.281 587.601 768.349 589.556 777.688 C 589.960 779.615 596.076 785.141 597.339 784.720 C 598.116 784.461 598.498 781.061 598.495 774.429 C 598.491 765.328 598.329 764.495 596.495 764.147 C 595.398 763.939 594.181 763.262 593.792 762.643 C 593.402 762.024 592.502 761.470 591.792 761.411 C 588.467 761.137 588.000 760.902 588.000 759.500 C 588.000 758.675 587.550 757.944 587.000 757.875 C 586.450 757.806 585.550 757.638 585.000 757.500 C 584.450 757.363 583.602 757.194 583.117 757.125 C 582.631 757.056 581.987 756.060 581.687 754.910 C 581.291 753.397 580.615 752.987 579.237 753.425 C 577.837 753.869 577.019 753.338 576.144 751.416 C 575.350 749.674 574.437 749.002 573.402 749.399 C 571.738 750.038 569.000 747.901 569.000 745.964 C 569.000 745.303 568.309 745.051 567.426 745.390 C 565.758 746.030 563.000 743.919 563.000 742.004 C 563.000 741.320 562.201 741.119 561.000 741.500 C 558.990 742.138 558.143 740.190 559.737 738.596 C 560.143 738.191 560.480 737.314 560.487 736.648 C 560.494 735.983 561.400 733.229 562.500 730.530 C 563.600 727.830 562.041 730.544 559.036 736.561 "/></g>
<g fill="#FDA5A4FD" stroke="#FDA5A4FD">
<path d="M 430.729 1429.212 C 401.687 1457.790 390.033 1484.282 373.071 1560.274 C 351.767 1655.727 354.326 1647.459 330.820 1696.727 C 318.423 1722.712 317.881 1724.110 318.953 1727.356 C 320.295 1731.422 322.320 1733.400 327.254 1735.462 C 334.724 1738.583 352.813 1736.403 357.723 1731.791 C 358.958 1730.630 360.240 1728.065 360.571 1726.090 C 364.806 1700.840 372.225 1672.348 380.514 1649.503 C 389.017 1626.067 420.915 1560.558 467.919 1470.000 C 479.481 1447.725 488.954 1429.163 488.970 1428.750 C 488.987 1428.338 488.001 1428.000 486.781 1428.000 C 484.747 1428.000 446.666 1420.564 442.842 1419.420 C 441.720 1419.084 437.805 1422.249 430.729 1429.212 "/></g>
<g fill="#FC7060FD" stroke="#FC7060FD">
<path d="M 626.127 887.032 C 622.622 888.066 619.697 889.044 619.627 889.206 C 614.598 900.816 603.287 907.286 580.524 911.573 C 572.022 913.174 570.944 913.194 568.791 911.782 C 566.530 910.301 565.944 910.492 556.205 915.886 C 539.422 925.183 518.928 940.442 521.658 941.610 C 525.858 943.406 532.935 949.211 537.258 954.406 C 540.048 957.758 542.706 960.500 543.165 960.500 C 543.624 960.500 543.984 960.950 543.965 961.500 C 543.945 962.050 545.837 965.834 548.169 969.909 C 552.703 977.835 554.041 983.340 552.826 989.075 C 552.230 991.887 552.816 994.873 555.574 1003.075 C 558.624 1012.148 561.386 1024.071 563.502 1037.300 C 563.977 1040.271 564.479 1040.988 565.805 1040.584 C 568.182 1039.861 598.552 1036.000 601.863 1036.000 C 604.555 1036.000 604.589 1035.917 604.647 1029.250 C 604.728 1020.055 607.782 1012.378 613.431 1007.170 C 618.601 1002.405 623.646 1001.279 632.496 1002.915 C 640.580 1004.409 640.595 1004.405 642.058 1000.750 C 647.100 988.146 664.720 950.922 666.866 948.340 C 670.581 943.871 676.194 941.758 683.269 942.166 L 689.076 942.500 683.788 934.809 C 673.591 919.979 659.873 905.610 641.198 890.200 C 637.732 887.340 634.357 885.034 633.698 885.076 C 633.039 885.118 629.632 885.999 626.127 887.032 "/></g>
<g fill="#FDA5A4FD" stroke="#FDA5A4FD">
<path d="M 592.500 1433.574 C 588.100 1434.287 581.755 1434.899 578.401 1434.935 C 575.046 1434.971 568.942 1435.284 564.836 1435.631 L 557.371 1436.262 550.732 1449.381 C 543.206 1464.255 541.000 1471.465 541.000 1481.194 C 541.000 1484.920 542.343 1503.388 543.985 1522.234 C 545.626 1541.080 549.230 1583.876 551.993 1617.335 L 557.016 1678.169 554.860 1681.196 C 552.753 1684.155 552.743 1684.342 554.382 1689.542 C 557.809 1700.414 560.536 1703.070 585.602 1719.946 C 598.308 1728.501 610.458 1736.841 612.602 1738.480 L 616.500 1741.460 614.552 1738.480 C 601.312 1718.228 587.595 1694.456 585.713 1688.500 C 582.192 1677.363 582.825 1660.402 590.060 1572.000 C 593.005 1536.008 601.419 1444.520 602.544 1436.250 C 602.975 1433.082 602.789 1432.035 601.811 1432.139 C 601.090 1432.216 596.900 1432.861 592.500 1433.574 "/></g>
<g fill="#4D50FDFD" stroke="#4D50FDFD">
<path d="M 674.491 943.831 C 668.508 946.600 665.006 951.298 659.057 964.539 C 656.101 971.118 650.809 982.742 647.296 990.371 C 643.783 998.000 641.042 1004.319 641.204 1004.413 C 641.367 1004.508 643.750 1005.137 646.500 1005.811 C 660.031 1009.130 669.000 1012.358 668.996 1013.908 C 668.988 1017.523 665.158 1021.880 661.362 1022.592 L 657.629 1023.292 660.314 1025.434 C 661.791 1026.611 663.000 1028.267 663.000 1029.113 C 663.000 1031.764 658.467 1035.202 655.456 1034.834 L 652.719 1034.500 655.360 1037.644 C 658.632 1041.541 658.653 1042.526 655.507 1044.587 C 653.069 1046.185 650.562 1046.155 643.709 1044.447 C 641.238 1043.831 640.149 1044.493 634.208 1050.229 C 630.517 1053.792 626.486 1057.028 625.249 1057.421 C 622.467 1058.304 622.402 1060.506 625.030 1064.818 C 628.255 1070.107 633.018 1071.476 660.148 1074.909 C 685.658 1078.137 687.821 1078.100 691.174 1074.365 C 692.095 1073.339 705.258 1047.905 720.424 1017.845 C 743.287 972.533 748.000 962.483 748.000 959.050 C 748.000 952.965 745.116 950.503 736.955 949.620 C 729.649 948.830 729.439 948.803 703.500 945.420 C 693.050 944.058 683.150 942.725 681.500 942.459 C 679.734 942.174 676.852 942.739 674.491 943.831 "/></g>
<g fill="#E95C55FD" stroke="#E95C55FD">
<path d="M 1400.658 505.581 C 1392.690 507.510 1389.312 509.723 1386.979 514.544 C 1384.722 519.205 1384.530 521.680 1386.112 525.685 C 1386.724 527.233 1390.282 537.275 1394.020 548.000 C 1397.757 558.725 1401.793 570.200 1402.988 573.500 C 1404.184 576.800 1405.316 580.175 1405.504 581.000 C 1405.693 581.825 1405.938 582.613 1406.048 582.750 C 1406.159 582.888 1406.363 583.450 1406.500 584.000 C 1406.638 584.550 1406.841 585.113 1406.952 585.250 C 1407.062 585.388 1407.294 586.175 1407.466 587.000 C 1407.827 588.734 1416.732 613.518 1418.066 616.500 C 1418.961 618.503 1423.083 630.326 1427.497 643.553 C 1431.445 655.384 1435.257 664.257 1437.246 666.246 C 1440.645 669.645 1445.895 670.882 1451.194 669.533 C 1457.162 668.013 1458.159 667.143 1462.512 659.655 C 1464.480 656.270 1467.391 651.475 1468.981 649.000 C 1470.571 646.525 1473.589 641.641 1475.686 638.146 C 1480.991 629.308 1481.745 628.074 1484.804 623.232 C 1486.287 620.884 1491.100 613.075 1495.500 605.878 C 1499.900 598.681 1504.175 591.738 1505.000 590.449 C 1510.788 581.405 1515.840 571.999 1516.014 569.939 C 1516.531 563.849 1515.881 561.795 1512.185 557.832 C 1508.922 554.335 1507.642 553.672 1503.350 553.260 C 1495.214 552.478 1491.570 554.949 1486.208 564.883 C 1480.806 574.891 1475.605 584.721 1473.352 589.183 C 1465.652 604.427 1447.314 602.455 1443.078 585.927 C 1442.313 582.942 1441.833 580.500 1442.012 580.500 C 1442.192 580.500 1441.833 579.557 1441.217 578.405 C 1440.600 577.252 1439.825 575.002 1439.495 573.405 C 1439.165 571.807 1438.769 570.050 1438.616 569.500 C 1438.462 568.950 1437.764 566.477 1437.064 564.004 C 1436.363 561.531 1435.642 558.831 1435.460 558.004 C 1432.984 546.732 1422.978 512.615 1421.475 510.321 C 1419.164 506.795 1414.012 503.996 1410.000 504.087 C 1408.075 504.131 1403.871 504.803 1400.658 505.581 "/></g>
<g fill="#FDA5A4FD" stroke="#FDA5A4FD">
<path d="M 754.370 809.122 C 723.932 837.768 697.636 856.950 669.066 871.349 C 661.055 875.387 650.350 880.167 645.278 881.972 L 636.057 885.253 641.278 889.349 C 651.651 897.485 665.675 911.160 675.275 922.500 C 678.069 925.800 680.725 928.388 681.177 928.250 C 681.630 928.113 682.000 928.627 682.000 929.393 C 682.000 930.733 684.697 932.488 686.250 932.159 C 686.663 932.071 687.000 932.450 687.000 933.000 C 687.000 933.550 687.653 934.000 688.450 934.000 C 689.248 934.000 690.359 934.788 690.920 935.750 C 691.481 936.713 691.960 937.050 691.985 936.500 C 692.010 935.950 692.434 936.137 692.927 936.916 C 693.611 937.996 699.487 932.663 717.716 914.416 C 741.195 890.915 753.603 877.339 771.566 855.500 C 781.965 842.857 797.000 823.426 797.000 822.630 C 797.000 821.956 781.356 810.000 780.475 810.000 C 780.121 810.000 777.211 807.941 774.008 805.425 C 770.805 802.909 767.378 800.732 766.392 800.587 C 764.731 800.343 764.743 800.240 766.549 799.192 C 767.622 798.570 767.980 798.047 767.344 798.030 C 766.708 798.014 760.870 803.005 754.370 809.122 "/></g>
<g fill="#BDD0F9FD" stroke="#BDD0F9FD">
<path d="M 488.804 1431.250 C 488.107 1432.488 482.073 1443.850 475.394 1456.500 C 463.318 1479.373 463.260 1479.516 464.876 1482.309 C 467.582 1486.989 494.366 1522.435 504.192 1534.340 C 518.398 1551.551 546.689 1583.000 547.966 1583.000 C 548.287 1583.000 546.867 1562.863 544.812 1538.250 C 539.411 1473.592 539.549 1470.373 548.482 1452.777 L 552.911 1444.053 550.993 1439.716 L 549.074 1435.380 533.787 1434.162 C 525.379 1433.493 512.650 1432.068 505.500 1430.996 C 489.360 1428.575 490.318 1428.560 488.804 1431.250 "/></g>
<g fill="#FD908DFD" stroke="#FD908DFD">
<path d="M 510.124 951.750 C 498.972 963.810 487.024 978.160 487.010 979.509 C 487.005 980.065 486.056 981.108 484.903 981.829 C 483.749 982.549 483.037 983.370 483.319 983.653 C 483.602 983.935 482.886 985.114 481.729 986.271 C 480.353 987.647 480.038 988.513 480.819 988.773 C 481.475 988.992 481.758 989.582 481.447 990.085 C 481.136 990.588 481.316 991.000 481.847 991.000 C 482.378 991.000 482.577 991.900 482.290 993.000 C 481.997 994.118 482.259 995.000 482.883 995.000 C 483.498 995.000 483.947 995.338 483.882 995.750 C 483.816 996.163 483.851 996.725 483.958 997.000 C 484.065 997.275 484.315 998.366 484.514 999.425 C 484.712 1000.484 485.578 1001.744 486.437 1002.225 C 487.297 1002.706 488.000 1004.202 488.000 1005.550 C 488.000 1006.897 488.563 1008.007 489.250 1008.015 C 490.170 1008.027 490.142 1008.258 489.143 1008.890 C 488.197 1009.490 488.122 1009.957 488.893 1010.434 C 489.502 1010.810 490.057 1010.754 490.128 1010.309 C 490.198 1009.864 490.356 1010.400 490.480 1011.500 C 490.903 1015.269 492.144 1018.029 493.139 1017.414 C 493.686 1017.076 494.050 1017.407 493.948 1018.150 C 493.558 1020.990 494.038 1023.094 494.948 1022.532 C 495.469 1022.210 495.720 1022.859 495.505 1023.973 C 495.290 1025.088 495.566 1026.000 496.116 1026.000 C 496.667 1026.000 496.862 1026.414 496.550 1026.919 C 496.237 1027.425 496.639 1028.496 497.443 1029.300 C 498.247 1030.104 498.629 1031.038 498.292 1031.375 C 497.955 1031.712 498.445 1032.834 499.381 1033.869 C 500.317 1034.903 501.011 1036.144 500.923 1036.625 C 500.563 1038.594 501.055 1040.084 501.895 1039.565 C 502.388 1039.260 503.057 1039.707 503.384 1040.558 C 503.724 1041.443 503.555 1041.843 502.989 1041.493 C 502.445 1041.157 502.000 1041.310 502.000 1041.834 C 502.000 1042.358 502.667 1043.042 503.483 1043.355 C 504.299 1043.668 504.723 1044.558 504.426 1045.333 C 504.128 1046.108 504.586 1047.011 505.443 1047.340 C 506.299 1047.668 507.000 1048.531 507.000 1049.257 C 507.000 1049.983 507.851 1052.247 508.892 1054.289 C 509.933 1056.330 510.406 1058.000 509.943 1058.000 C 508.837 1058.000 511.744 1064.988 513.822 1067.324 C 515.016 1068.666 515.084 1069.062 514.080 1068.824 C 513.330 1068.646 513.765 1069.513 515.046 1070.750 C 516.566 1072.217 516.894 1073.000 515.989 1073.000 C 514.909 1073.000 514.867 1073.267 515.800 1074.200 C 516.460 1074.860 517.056 1075.085 517.125 1074.700 C 517.194 1074.315 517.306 1074.563 517.375 1075.250 C 517.444 1075.938 518.850 1076.584 520.500 1076.686 C 524.658 1076.943 545.596 1074.294 553.211 1072.547 C 556.670 1071.753 561.750 1070.848 564.500 1070.535 C 569.724 1069.942 606.120 1061.162 607.888 1060.069 C 608.554 1059.657 608.154 1055.366 606.725 1047.614 L 604.545 1035.786 597.523 1036.466 C 590.420 1037.154 576.648 1039.056 547.500 1043.373 C 532.926 1045.531 518.564 1046.149 513.539 1044.834 C 512.168 1044.475 511.478 1043.287 511.244 1040.886 C 510.709 1035.399 517.249 1026.611 536.092 1007.493 L 553.000 990.339 553.000 984.630 C 553.000 980.769 552.306 977.557 550.857 974.710 C 548.046 969.189 539.975 957.458 535.806 952.832 C 531.373 947.914 523.285 942.000 520.993 942.000 C 519.931 942.000 515.288 946.165 510.124 951.750 "/></g>
<g fill="#FDB9B8FD" stroke="#FDB9B8FD">
<path d="M 894.364 646.131 C 876.836 656.634 855.640 671.001 845.510 679.244 C 835.180 687.651 834.924 688.202 832.391 707.500 C 831.525 714.100 830.465 720.400 830.036 721.500 C 827.719 727.440 792.601 769.886 773.606 789.705 C 766.625 796.990 763.594 800.771 764.946 800.510 C 766.308 800.248 769.246 801.813 773.476 805.055 C 777.024 807.775 780.195 810.000 780.523 810.000 C 780.850 810.000 784.665 812.700 789.000 816.000 C 793.335 819.300 797.091 822.000 797.347 822.000 C 798.559 822.000 804.978 811.773 804.376 810.800 C 803.984 810.166 804.143 809.971 804.748 810.344 C 806.441 811.391 825.132 781.515 835.227 761.626 C 837.495 757.157 841.460 748.550 844.037 742.500 L 848.722 731.500 853.412 730.315 C 855.992 729.663 860.061 727.982 862.454 726.580 C 867.683 723.516 883.303 707.103 886.323 701.500 C 889.466 695.668 889.183 684.057 885.655 674.126 C 884.214 670.071 883.261 666.386 883.538 665.938 C 883.815 665.491 888.869 661.878 894.771 657.911 C 900.672 653.944 906.048 649.978 906.718 649.099 C 908.132 647.243 908.417 640.376 907.114 639.570 C 906.626 639.269 900.888 642.221 894.364 646.131 "/></g>
<g fill="#FDA5A4FD" stroke="#FDA5A4FD">
<path d="M 616.511 739.601 C 610.938 741.641 605.648 747.174 602.388 754.374 C 599.963 759.731 599.561 762.037 599.187 772.750 C 598.823 783.147 598.516 785.000 597.155 785.000 C 595.325 785.000 589.000 778.293 589.000 776.353 C 589.000 775.647 587.603 773.479 585.896 771.535 C 581.987 767.082 577.627 766.760 573.077 770.589 C 567.654 775.152 569.311 782.190 577.998 791.500 C 579.705 793.329 581.070 796.179 581.495 798.801 C 582.577 805.467 592.846 816.257 604.500 822.972 C 615.929 829.557 635.746 833.492 644.972 831.008 C 653.590 828.687 660.034 819.652 661.434 807.926 C 663.554 790.173 652.385 755.809 640.292 742.882 L 635.726 738.000 628.113 738.070 C 623.926 738.109 618.705 738.798 616.511 739.601 "/></g>
<g fill="#FC7060FD" stroke="#FC7060FD">
<path d="M 613.500 1059.995 C 607.057 1060.613 567.421 1070.004 565.038 1071.476 C 564.467 1071.829 564.000 1074.229 564.000 1076.809 C 564.000 1081.056 560.814 1102.604 559.463 1107.500 C 558.485 1111.042 578.300 1119.850 594.500 1123.074 C 607.482 1125.657 628.977 1124.265 641.420 1120.036 L 646.497 1118.310 654.217 1097.905 C 658.463 1086.682 661.951 1077.044 661.968 1076.487 C 661.986 1075.927 655.431 1074.665 647.307 1073.663 C 639.227 1072.667 631.387 1071.217 629.886 1070.441 C 626.927 1068.911 623.675 1064.829 622.564 1061.250 C 622.180 1060.013 621.558 1059.073 621.183 1059.162 C 620.807 1059.251 617.350 1059.626 613.500 1059.995 "/></g>
<g fill="#FD908DFD" stroke="#FD908DFD">
<path d="M 588.668 812.734 C 588.410 813.155 585.448 826.100 582.086 841.500 C 578.725 856.900 573.887 878.634 571.336 889.798 C 567.718 905.628 566.962 910.361 567.902 911.298 C 570.875 914.264 593.346 909.883 604.790 904.106 C 611.634 900.651 617.733 895.119 618.432 891.731 C 618.685 890.504 620.521 877.125 622.510 862.000 C 624.500 846.875 626.331 833.788 626.578 832.918 C 626.922 831.709 625.549 830.925 620.764 829.597 C 612.010 827.167 602.799 822.586 596.693 817.625 C 590.213 812.363 589.254 811.778 588.668 812.734 "/></g>
<g fill="#BDD0F9FD" stroke="#BDD0F9FD">
<path d="M 480.430 407.323 C 480.119 408.132 482.110 417.278 484.853 427.647 C 500.676 487.451 517.766 566.515 531.511 643.500 C 533.923 657.009 544.082 724.144 545.963 739.000 C 546.555 743.675 547.279 748.574 547.573 749.886 L 548.106 752.272 551.143 749.386 C 552.813 747.799 555.506 743.588 557.127 740.029 L 560.075 733.559 558.025 720.529 C 546.376 646.483 524.697 548.133 502.580 469.000 C 488.961 420.272 484.614 406.549 482.680 406.177 C 481.753 405.998 480.740 406.514 480.430 407.323 "/></g>
<g fill="#FDA5A4FD" stroke="#FDA5A4FD">
<path d="M 473.196 997.886 C 460.152 1017.681 453.000 1035.260 453.000 1047.528 C 453.000 1055.429 454.691 1060.367 459.118 1065.396 C 466.729 1074.043 481.043 1078.000 504.710 1078.000 C 517.517 1078.000 519.097 1077.822 518.000 1076.500 C 517.315 1075.675 517.035 1074.944 517.378 1074.875 C 517.720 1074.806 517.588 1074.694 517.083 1074.625 C 515.514 1074.411 514.592 1073.000 516.022 1073.000 C 516.873 1073.000 516.510 1072.163 515.046 1070.750 C 513.765 1069.513 513.330 1068.646 514.080 1068.824 C 515.084 1069.062 515.016 1068.666 513.822 1067.324 C 511.744 1064.988 508.837 1058.000 509.943 1058.000 C 510.406 1058.000 509.933 1056.330 508.892 1054.289 C 507.851 1052.247 507.000 1049.983 507.000 1049.257 C 507.000 1048.531 506.299 1047.668 505.443 1047.340 C 504.586 1047.011 504.128 1046.108 504.426 1045.333 C 504.723 1044.558 504.299 1043.668 503.483 1043.355 C 502.667 1043.042 502.000 1042.358 502.000 1041.834 C 502.000 1041.310 502.445 1041.157 502.989 1041.493 C 503.555 1041.843 503.724 1041.443 503.384 1040.558 C 503.057 1039.707 502.388 1039.260 501.895 1039.565 C 501.055 1040.084 500.563 1038.594 500.923 1036.625 C 501.011 1036.144 500.317 1034.903 499.381 1033.869 C 498.445 1032.834 497.955 1031.712 498.292 1031.375 C 498.629 1031.038 498.247 1030.104 497.443 1029.300 C 496.639 1028.496 496.237 1027.425 496.550 1026.919 C 496.862 1026.414 496.667 1026.000 496.116 1026.000 C 495.566 1026.000 495.290 1025.088 495.505 1023.973 C 495.720 1022.859 495.469 1022.210 494.948 1022.532 C 494.038 1023.094 493.558 1020.990 493.948 1018.150 C 494.050 1017.407 493.686 1017.076 493.139 1017.414 C 492.139 1018.032 490.793 1015.020 490.602 1011.737 C 490.546 1010.768 490.163 1009.980 489.750 1009.987 C 487.705 1010.022 487.610 1009.898 489.000 1009.000 C 490.000 1008.354 490.083 1008.026 489.250 1008.015 C 488.563 1008.007 488.000 1006.897 488.000 1005.550 C 488.000 1004.202 487.297 1002.706 486.437 1002.225 C 485.578 1001.744 484.712 1000.484 484.514 999.425 C 484.315 998.366 484.065 997.275 483.958 997.000 C 483.851 996.725 483.816 996.163 483.882 995.750 C 483.947 995.338 483.498 995.000 482.883 995.000 C 482.259 995.000 481.997 994.118 482.290 993.000 C 482.577 991.900 482.378 991.000 481.847 991.000 C 481.316 991.000 481.160 990.550 481.500 990.000 C 481.840 989.450 481.641 989.000 481.059 989.000 C 480.477 989.000 480.113 988.505 480.250 987.900 C 480.388 987.296 477.213 991.789 473.196 997.886 "/></g>
<g fill="#0D0471FD" stroke="#0D0471FD">
<path d="M 607.500 694.070 C 596.120 695.197 586.525 699.732 578.681 707.688 C 576.106 710.299 574.000 712.682 574.000 712.984 C 574.000 713.286 576.588 715.067 579.750 716.942 C 582.913 718.817 585.725 720.627 586.000 720.964 C 586.275 721.301 588.075 722.565 590.000 723.772 C 591.925 724.979 593.163 726.030 592.750 726.108 C 592.338 726.186 592.338 726.328 592.750 726.424 C 595.891 727.154 597.927 728.330 598.571 729.788 C 598.999 730.757 599.365 730.947 599.414 730.225 C 599.462 729.514 601.046 730.363 603.000 732.147 C 604.925 733.905 606.598 735.154 606.718 734.922 C 606.837 734.690 607.855 735.288 608.979 736.250 C 610.103 737.213 611.468 738.000 612.011 738.000 C 612.555 738.000 613.000 738.430 613.000 738.956 C 613.000 739.482 614.852 739.258 617.126 738.456 C 619.395 737.655 624.379 737.000 628.203 737.000 C 634.442 737.000 635.440 737.282 637.949 739.750 C 639.486 741.263 641.883 743.550 643.276 744.834 L 645.808 747.168 649.654 739.386 C 652.957 732.703 653.495 730.678 653.463 725.052 C 653.416 716.705 651.008 711.950 643.392 705.161 C 634.023 696.811 620.866 692.745 607.500 694.070 "/></g>
<g fill="#FD908DFD" stroke="#FD908DFD">
<path d="M 1532.615 1220.579 C 1525.366 1222.894 1517.647 1230.968 1515.447 1238.536 C 1511.306 1252.777 1518.648 1267.635 1532.316 1272.674 C 1534.067 1273.320 1538.425 1273.878 1542.000 1273.914 C 1562.351 1274.122 1575.532 1252.870 1566.501 1234.412 C 1560.552 1222.254 1545.987 1216.308 1532.615 1220.579 "/></g>
<g fill="#4040E0FD" stroke="#4040E0FD">
<path d="M 548.249 1687.584 C 544.027 1690.912 540.283 1697.378 539.407 1702.855 C 538.912 1705.950 539.827 1713.979 542.570 1730.605 C 546.204 1752.632 546.555 1754.000 548.568 1754.000 C 550.572 1754.000 550.748 1753.347 551.380 1743.569 C 552.412 1727.607 555.377 1720.000 560.565 1720.000 C 564.768 1720.000 575.062 1729.482 587.000 1744.350 C 590.025 1748.118 593.715 1751.830 595.200 1752.600 C 597.163 1753.617 601.993 1754.000 612.879 1754.000 C 629.396 1754.000 631.000 1753.468 631.000 1747.985 C 631.000 1744.084 627.761 1742.000 621.695 1742.000 C 617.073 1742.000 615.730 1741.248 594.168 1726.581 C 581.701 1718.101 569.253 1709.664 566.506 1707.831 C 561.035 1704.181 555.685 1696.394 553.741 1689.250 C 553.105 1686.913 552.341 1685.005 552.043 1685.011 C 551.744 1685.017 550.037 1686.175 548.249 1687.584 "/></g>
<g fill="#E95C55FD" stroke="#E95C55FD">
<path d="M 1098.293 1389.968 C 1090.646 1394.619 1087.975 1402.156 1087.298 1421.000 C 1086.511 1442.918 1090.236 1454.896 1099.213 1459.306 C 1106.727 1462.997 1114.341 1458.924 1118.090 1449.208 C 1119.890 1444.544 1120.381 1440.771 1120.775 1428.574 C 1121.478 1406.822 1118.960 1395.993 1111.998 1390.834 C 1108.390 1388.160 1101.936 1387.752 1098.293 1389.968 "/></g>
<g fill="#FDA5A4FD" stroke="#FDA5A4FD">
<path d="M 616.984 1004.834 C 615.068 1005.843 612.078 1008.880 610.340 1011.584 C 608.602 1014.288 607.831 1015.861 608.626 1015.081 C 609.888 1013.843 610.037 1016.625 609.787 1036.832 L 609.500 1060.002 614.136 1060.001 C 620.257 1060.000 627.022 1056.278 635.471 1048.263 L 642.045 1042.026 641.773 1023.828 L 641.500 1005.629 636.500 1004.334 C 629.233 1002.451 621.116 1002.659 616.984 1004.834 "/></g>
<g fill="#BDD0F9FD" stroke="#BDD0F9FD">
<path d="M 546.372 997.852 C 539.027 1004.508 521.933 1022.850 517.066 1029.296 C 511.486 1036.687 510.440 1040.440 513.192 1043.192 C 515.150 1045.150 516.042 1045.242 527.888 1044.718 C 538.964 1044.228 561.850 1041.437 562.868 1040.453 C 564.215 1039.150 557.651 1009.424 553.736 999.101 L 551.500 993.205 546.372 997.852 "/></g>
<g fill="#4040E0FD" stroke="#4040E0FD">
<path d="M 321.377 1712.709 C 318.099 1717.018 313.524 1726.661 310.475 1735.692 C 308.022 1742.957 307.854 1744.233 308.992 1746.980 C 309.697 1748.683 311.225 1750.610 312.387 1751.263 C 317.755 1754.277 351.795 1753.675 356.671 1750.480 C 360.394 1748.041 361.779 1743.634 363.454 1728.901 C 365.246 1713.137 365.293 1712.000 364.145 1712.000 C 363.675 1712.000 362.707 1716.067 361.995 1721.038 C 360.857 1728.973 360.348 1730.371 357.819 1732.499 C 354.212 1735.534 349.569 1736.841 340.000 1737.513 C 330.269 1738.198 323.562 1736.018 320.273 1731.102 C 317.288 1726.640 317.374 1723.796 320.723 1716.209 C 323.054 1710.928 323.159 1710.366 321.377 1712.709 "/></g>
</svg>
