<?xml version="1.0" encoding="utf-8"?>
<!DOCTYPE svg PUBLIC "-//W3C//DTD SVG 20010904//EN" "http://www.w3.org/TR/2001/REC-SVG-20010904/DTD/svg10.dtd">
<svg version="1.0" xmlns="http://www.w3.org/2000/svg" width="720pt" height="720pt" viewBox="0 0 720 720" style="" preserveAspectRatio="xMidYMid meet">
<g fill="#000000FF" stroke="#000000FF">
<path d="M 419.823 288.502 L 419.500 297.005 427.059 297.002 C 435.500 297.000 437.633 297.995 438.850 302.501 C 440.025 306.852 439.125 310.052 426.479 346.500 C 420.182 364.650 413.851 384.000 412.409 389.500 C 410.967 395.000 409.679 399.618 409.548 399.763 C 409.416 399.907 408.050 395.182 406.512 389.263 C 404.974 383.343 398.605 363.279 392.358 344.676 C 386.111 326.073 381.000 310.436 381.000 309.926 C 381.000 309.417 384.375 309.000 388.500 309.000 L 396.000 309.000 396.000 297.500 L 396.000 286.000 203.500 286.000 L 11.000 286.000 11.000 297.500 L 11.000 309.000 186.750 309.001 L 362.500 309.001 376.392 348.751 C 384.032 370.613 392.535 394.932 395.287 402.794 L 400.290 417.088 406.362 416.794 L 412.434 416.500 430.690 364.000 C 452.695 300.718 451.608 303.619 454.687 299.961 L 457.178 297.000 550.589 297.000 L 644.000 297.000 644.000 288.500 L 644.000 280.000 532.073 280.000 L 420.147 280.000 419.823 288.502 "/></g>
<g fill="#000000FF" stroke="#000000FF">
<path d="M 470.703 317.385 C 456.312 322.735 449.972 335.530 451.245 356.659 C 452.535 378.096 462.655 389.239 481.000 389.424 C 490.556 389.521 496.851 387.676 501.998 383.270 C 509.184 377.118 513.000 366.621 513.000 353.000 C 513.000 336.296 507.258 324.368 496.500 318.727 C 491.357 316.030 476.436 315.254 470.703 317.385 M 489.400 323.394 C 493.472 325.095 497.428 330.135 498.903 335.500 C 502.083 347.069 500.965 367.678 496.738 375.407 C 490.690 386.466 473.492 386.503 467.303 375.470 C 464.198 369.934 462.635 359.239 463.290 348.004 C 464.125 333.682 467.360 326.585 474.500 323.412 C 478.440 321.661 485.233 321.653 489.400 323.394 "/></g>
<g fill="#000000FF" stroke="#000000FF">
<path d="M 320.834 317.521 C 311.835 320.396 307.882 329.402 313.635 333.927 C 315.084 335.067 317.304 336.000 318.567 336.000 C 320.894 336.000 321.279 335.341 322.502 329.262 C 323.502 324.294 327.171 322.000 334.119 322.000 C 339.147 322.000 340.420 322.403 343.182 324.872 C 346.300 327.658 346.409 328.028 346.813 337.272 L 347.230 346.801 338.365 347.428 C 315.581 349.039 307.227 353.634 305.442 365.538 C 303.434 378.925 312.510 389.989 325.500 389.989 C 332.048 389.989 336.404 387.920 341.831 382.233 C 347.799 375.980 348.419 376.138 349.528 384.202 L 350.188 389.000 359.094 389.000 C 367.849 389.000 368.000 388.959 368.000 386.579 C 368.000 384.716 367.326 384.011 365.069 383.515 C 359.667 382.329 359.540 381.726 359.000 354.600 C 358.520 330.496 358.406 329.336 356.132 325.368 C 352.342 318.755 347.464 316.609 335.500 316.294 C 328.735 316.116 323.990 316.513 320.834 317.521 M 347.000 360.288 C 347.000 366.912 346.548 369.460 344.750 372.980 C 341.470 379.398 338.226 381.368 330.218 381.803 C 324.477 382.115 323.178 381.865 321.287 380.080 C 316.925 375.963 316.174 366.636 319.651 359.767 C 322.053 355.020 329.638 352.331 341.250 352.110 L 347.000 352.000 347.000 360.288 "/></g>
<g fill="#000000FF" stroke="#000000FF">
<path d="M 130.834 317.575 C 121.851 320.340 117.867 329.390 123.635 333.927 C 128.551 337.795 132.000 336.316 132.000 330.341 C 132.000 328.917 133.254 326.592 134.923 324.923 C 137.449 322.397 138.597 322.000 143.376 322.000 C 154.016 322.000 156.206 324.551 156.809 337.651 L 157.230 346.801 148.365 347.428 C 130.414 348.697 122.683 351.374 118.339 357.823 C 112.167 366.987 115.671 382.676 124.963 387.481 C 129.137 389.639 136.992 390.346 142.025 389.016 C 145.350 388.137 147.870 386.395 151.831 382.239 C 157.798 375.979 158.419 376.137 159.528 384.202 L 160.188 389.000 169.094 389.000 C 177.849 389.000 178.000 388.959 178.000 386.579 C 178.000 384.703 177.326 384.011 175.001 383.500 C 169.309 382.250 169.001 380.837 168.994 356.027 C 168.991 342.678 168.539 331.880 167.885 329.523 C 166.469 324.425 160.575 318.531 155.477 317.115 C 149.986 315.591 136.461 315.843 130.834 317.575 M 157.000 360.288 C 157.000 366.912 156.548 369.460 154.750 372.980 C 151.470 379.398 148.226 381.368 140.218 381.803 C 134.477 382.115 133.178 381.865 131.287 380.080 C 126.925 375.963 126.174 366.636 129.651 359.767 C 132.053 355.020 139.594 352.280 150.750 352.100 L 157.000 352.000 157.000 360.288 "/></g>
<g fill="#000000FF" stroke="#000000FF">
<path d="M 184.000 319.500 C 184.000 321.229 184.548 322.000 185.777 322.000 C 188.815 322.000 191.768 324.817 193.376 329.248 C 194.225 331.587 198.619 346.008 203.142 361.296 L 211.365 389.092 216.354 388.796 L 221.343 388.500 230.838 360.000 C 236.060 344.325 240.563 332.175 240.843 333.000 C 241.124 333.825 245.436 346.650 250.426 361.500 L 259.500 388.500 264.500 388.789 L 269.500 389.078 274.934 371.289 C 289.447 323.777 290.212 322.000 296.174 322.000 C 298.522 322.000 299.000 321.577 299.000 319.500 L 299.000 317.000 285.000 317.000 L 271.000 317.000 271.000 319.500 C 271.000 321.512 271.497 322.000 273.545 322.000 C 274.945 322.000 277.241 323.150 278.646 324.555 C 281.840 327.749 281.719 328.537 274.410 352.000 C 271.411 361.625 268.683 371.197 268.348 373.272 C 267.550 378.201 266.330 378.836 265.496 374.759 C 265.129 372.966 260.787 359.238 255.847 344.250 L 246.866 317.000 243.052 317.000 L 239.237 317.000 230.630 342.250 C 225.896 356.138 221.474 369.638 220.804 372.250 C 220.134 374.863 219.294 377.000 218.937 377.000 C 218.581 377.000 217.502 373.357 216.540 368.905 C 215.578 364.452 212.818 353.765 210.407 345.155 C 207.996 336.545 206.018 328.513 206.011 327.307 C 205.997 324.594 209.522 322.000 213.223 322.000 C 215.518 322.000 216.000 321.567 216.000 319.500 L 216.000 317.000 200.000 317.000 L 184.000 317.000 184.000 319.500 "/></g>
<g fill="#000000FF" stroke="#000000FF">
<path d="M 593.627 317.409 C 580.748 322.197 574.163 336.221 575.271 356.500 C 576.127 372.150 581.248 381.519 591.770 386.686 C 596.688 389.101 598.705 389.500 606.000 389.500 C 613.308 389.500 615.309 389.103 620.267 386.668 C 626.622 383.547 629.590 379.489 628.550 375.342 L 627.936 372.899 623.976 376.289 C 617.113 382.163 606.397 383.725 598.271 380.036 C 591.873 377.132 588.664 370.882 587.342 358.750 L 586.715 353.000 609.499 353.000 L 632.282 353.000 631.762 344.668 C 630.946 331.587 626.435 323.384 617.500 318.736 C 612.328 316.045 599.252 315.318 593.627 317.409 M 613.070 325.567 C 616.431 328.787 619.000 336.202 619.000 342.682 L 619.000 347.000 602.955 347.000 L 586.909 347.000 587.536 343.250 C 589.460 331.748 592.159 326.789 598.500 323.106 C 602.028 321.057 609.718 322.356 613.070 325.567 "/></g>
<g fill="#000000FF" stroke="#000000FF">
<path d="M 61.385 317.851 C 59.122 318.913 55.795 321.617 53.991 323.861 C 52.188 326.105 50.387 327.739 49.988 327.493 C 49.590 327.246 48.964 324.785 48.597 322.022 L 47.931 317.000 37.466 317.000 L 27.000 317.000 27.000 319.500 C 27.000 321.585 27.476 322.000 29.865 322.000 C 31.441 322.000 33.916 322.933 35.365 324.073 L 38.000 326.145 38.000 352.573 C 38.000 377.604 37.895 379.105 36.014 380.986 C 34.922 382.078 32.222 383.261 30.014 383.614 C 26.637 384.154 26.000 384.632 26.000 386.628 L 26.000 389.000 44.000 389.000 L 62.000 389.000 62.000 386.588 C 62.000 384.553 61.374 384.070 58.004 383.501 C 55.400 383.061 53.277 381.898 51.909 380.163 C 49.904 377.619 49.826 376.586 50.159 357.000 C 50.493 337.320 50.607 336.322 53.004 332.051 C 56.308 326.162 60.618 323.725 67.617 323.787 C 73.635 323.841 76.944 325.461 79.736 329.717 C 81.296 332.096 81.536 335.678 81.807 360.703 L 82.114 389.000 93.557 389.000 C 104.954 389.000 105.000 388.990 105.000 386.611 C 105.000 384.692 104.340 384.099 101.637 383.592 C 94.770 382.303 94.557 381.513 94.000 355.148 C 93.528 332.823 93.367 331.231 91.129 326.684 C 87.605 319.526 82.825 316.756 73.196 316.291 C 67.120 315.998 64.634 316.326 61.385 317.851 "/></g>
<g fill="#000000FF" stroke="#000000FF">
<path d="M 539.545 301.250 C 539.329 301.938 538.605 304.300 537.937 306.500 C 535.696 313.881 530.418 319.000 525.050 319.000 C 523.530 319.000 523.000 319.646 523.000 321.500 C 523.000 323.828 523.338 324.000 527.927 324.000 L 532.855 324.000 533.177 350.750 C 533.471 375.131 533.677 377.852 535.500 381.472 C 538.400 387.231 542.921 389.500 551.500 389.500 C 561.284 389.500 564.000 388.602 564.000 385.367 C 564.000 382.866 563.841 382.797 559.584 383.435 C 556.579 383.886 554.012 383.614 551.548 382.585 C 545.464 380.042 545.000 377.665 545.000 349.032 L 545.000 324.000 554.000 324.000 L 563.000 324.000 563.000 320.500 L 563.000 317.000 554.000 317.000 L 545.000 317.000 545.000 308.500 C 545.000 300.072 544.979 300.000 542.469 300.000 C 541.076 300.000 539.761 300.563 539.545 301.250 "/></g>
</svg>
